<?xml version="1.0" encoding="utf-8"?>
<!-- Generator: Adobe Illustrator 27.8.1, SVG Export Plug-In . SVG Version: 6.00 Build 0)  -->
<svg version="1.1" id="Layer_1" xmlns="http://www.w3.org/2000/svg" xmlns:xlink="http://www.w3.org/1999/xlink" x="0px" y="0px"
	 viewBox="20 188 455 125" style="enable-background:new 0 0 500 500;" xml:space="preserve">
<style type="text/css">
	.st0{fill:#153558;}
	.st1{fill:#2DACDC;}
</style>
<path class="st0" d="M201.2,231.9h8.4v52.8h-8.4V231.9z M201.1,214.9h8.6v9.2h-8.6V214.9z"/>
<g>
	<path class="st0" d="M225.4,240.5c0-5.5,2.3-8.7,8.1-8.7h19c11.5,0,17.9,5,17.9,17.1v35.6h-8.4v-34.2c0-7.2-2.6-11.9-10.6-11.9
		h-14.5c-2,0-3.1,0.7-3.1,3.4v42.6h-8.4V240.5z"/>
	<path class="st0" d="M305.4,284.6c-13.2,0-16.9-6.3-16.9-16.9v-29.1h-7.8v-6.8h7.8v-16.9h8.4v16.9h14.8v6.8h-14.8v28.6
		c0,8.2,3.2,10.7,11.3,10.7h3.5v6.8H305.4z"/>
	<path class="st0" d="M346.6,278.5c13.5,0,18.4-5.5,18.4-20.4c0-14.9-4.9-20-18.4-20c-13.5,0-18.4,5.1-18.4,20
		C328.2,273,333.1,278.5,346.6,278.5 M373.7,258c0,20-8.2,27.2-27.2,27.2c-19,0-27.2-7.2-27.2-27.2c0-19.9,8.2-26.8,27.2-26.8
		C365.5,231.3,373.7,238.1,373.7,258"/>
	<path class="st0" d="M385.2,250.9c0-13,6.4-19,19.5-19h5.8v6.8h-4.3c-9.2,0-12.6,4.7-12.6,14.3v31.7h-8.4V250.9z"/>
</g>
<polygon class="st0" points="464.9,231.9 445.7,275.5 427.2,231.9 418.4,231.9 441.4,284.6 430.5,307.6 439.4,307.6 473.6,231.9 "/>
<g>
	<path class="st0" d="M178.9,231.9l-16.3,43c-0.4,0.9-0.9,1.5-1.6,1.5s-1.3-0.6-1.6-1.5l-16.3-43h-9.8l19,47.5
		c1.1,2.9,3.2,6.1,8.7,6.1c5.5,0,7.5-3.2,8.7-6.1l19.1-47.5H178.9z"/>
</g>
<g>
	<polygon class="st0" points="39,254.6 39.5,255.1 41,258.1 40.4,257.6 40.4,257.5 40.2,257.6 39.8,256.9 39.5,256.5 39.4,256.2 
		39.4,256.2 38.8,255.2 38.5,254.2 38.8,254.2 39,254.6 	"/>
	<polygon class="st0" points="99.1,239.1 98.8,239.5 98.8,239.6 99.1,239.1 	"/>
	<polygon class="st0" points="104.9,236.2 103.2,240.7 104.5,239.9 104.3,240.5 104.5,240.6 105.5,239.4 106.4,238.9 106.8,237.9 
		106.5,238.1 107.8,236.4 106.9,234.2 106.4,235.4 105,236.2 104.9,236.2 	"/>
	<path class="st0" d="M72.5,269l0.3,0l0.5-1.6l0.8-0.7l0,0l0-1.1l-0.3,0.3l0.8-2.3l0,0l0,0c-0.1-0.6-0.7-1.2-1.3-1.8
		c-0.3-0.3-0.5-0.5-0.7-0.7l-0.3-0.3l0.1,1.5l-1.3,1l0,0l0.3,5.9l1.2-1.1L72.5,269L72.5,269z"/>
	<path class="st0" d="M77,265.1l0.3,0l0.7-1.5l0.9-0.6l0,0l0.1-1.1l-0.3,0.2l1-2.2l0,0l0,0c-0.1-0.5-0.6-1.1-1.2-1.7
		c-0.2-0.2-0.5-0.5-0.6-0.7l-0.2-0.3l-0.1,1.4l-1.4,1l0,0l-0.3,5.6l1.3-1L77,265.1L77,265.1z"/>
	<path class="st0" d="M84.1,254.9c-0.2-0.2-0.4-0.5-0.6-0.7l-0.2-0.3l-0.2,1.3l-1.5,0.9l-0.8,5.3l1.4-0.9l-0.2,0.8l0.3,0l0.8-1.4
		l0.9-0.6l0.2-1l-0.3,0.2l1.2-2v0C85,255.9,84.6,255.4,84.1,254.9L84.1,254.9z"/>
	<polygon class="st0" points="89.1,251.7 87.6,252.6 87.6,252.6 86.4,257.6 87.8,256.7 87.6,257.4 87.8,257.4 88.6,256.1 
		89.5,255.6 89.6,255.5 89.9,254.5 89.5,254.7 90.8,252.8 89.4,250.4 89.1,251.7 	"/>
	<polygon class="st0" points="95.1,248.2 93.7,249.1 92.2,253.7 93.5,252.9 93.3,253.5 93.5,253.6 94.4,252.3 95.2,251.8 
		95.6,250.8 95.3,251 96.6,249.3 96.6,249.3 95.5,247 95.1,248.2 	"/>
	<polygon class="st0" points="102.3,245.8 101.7,243.6 101.2,244.8 99.9,245.5 99.9,245.5 98.1,249.9 99.3,249.1 99.1,249.6 
		99.3,249.7 100.2,248.6 100.9,248.1 101.4,247.1 101.2,247.3 102.3,245.8 	"/>
	<polygon class="st0" points="106.8,243.4 107.8,242.2 107.8,242.2 107.6,240.2 107,241.3 105.9,242 103.9,246 104.9,245.3 
		104.7,245.7 105,245.7 105.8,244.7 106.4,244.3 106.9,243.3 106.8,243.4 	"/>
	<path class="st0" d="M65.1,262.2L65.1,262.2c-0.3-0.7-1.2-1.4-2-2c-0.4-0.3-0.7-0.6-1-0.8l-0.3-0.3l0.5,1.7L61,262l1.9,6.7l0.8-1
		l0.2-0.2L64,268l-0.1-0.1l0.4,1.7l-0.9,1.1l0,0l1.4,6.4l0.7-1l0.1-0.1l0.1,0.9l0.1,0l0.1,0.9l-0.8,1.2l0,0l1,6.8l0.6-1.2l0.1,0.9
		l0.3,0l0.2-1.8l0.5-0.8l0,0l-0.1-1.4l-0.2,0.3l0.3-2.5l0,0c-0.1-0.6-0.7-1.3-1.2-1.9c-0.2-0.3-0.4-0.5-0.6-0.8l0.1-1.3l0.6-0.8
		l-0.2-1.2l-0.2,0.3l0.3-2.5l0,0l0,0c-0.2-0.6-0.8-1.2-1.4-1.7c-0.3-0.3-0.5-0.5-0.7-0.7l0.1-1.7l0.7-0.8l0,0l-0.3-1.2l-0.3,0.3
		L65.1,262.2L65.1,262.2L65.1,262.2z"/>
	<path class="st0" d="M71.4,260.3l0,0.2l1.2-0.9l0.3-0.2l0.1,1.7l0.8-2.3l1-0.7l0-1.1l-0.4,0.3l1-2.6l0,0c-0.6-0.6-1.5-1.4-2.3-2.1
		l-0.8-0.8l0.2,1.5l-1.7,1.1L71.4,260.3L71.4,260.3z"/>
	<path class="st0" d="M81.6,250.9L81.6,250.9c-0.6-0.6-1.3-1.3-1.9-1.9c-0.2-0.2-0.4-0.4-0.6-0.6l-0.2-0.2l0,1.4l-1.7,1l0,0l0.1,5.8
		l1.6-1l-0.1,1.6l1-2.2l1.1-0.7l0.1-1.1l-0.5,0.3L81.6,250.9L81.6,250.9z"/>
	<path class="st0" d="M87.1,250.2l0.2-1l-0.4,0.3l1.3-2.2l0,0l0,0c-0.4-0.5-1-1.2-1.5-1.7c-0.2-0.2-0.4-0.4-0.6-0.6l-0.2-0.2
		l-0.1,1.3l-1.8,1l-0.5,5.5l1.7-1l-0.2,1.5l1.2-2.1L87.1,250.2L87.1,250.2L87.1,250.2z"/>
	<path class="st0" d="M92.6,246.9l1.1-0.6l0,0l0.3-1l-0.4,0.2l1.4-2.1l0,0c-0.3-0.5-0.8-1-1.2-1.5c-0.2-0.2-0.4-0.5-0.5-0.7
		l-0.2-0.3l-0.2,1.3l-1.8,0.9l-1,5.2l1.6-0.9l-0.4,1.5L92.6,246.9L92.6,246.9z"/>
	<polygon class="st0" points="100.4,237.4 100,238.6 98.4,239.4 98.4,239.5 96.9,244.3 98.5,243.5 98,244.9 99.4,242.9 100.4,242.4 
		100.5,242.4 100.8,241.4 100.4,241.6 101.9,239.7 100.4,237.4 	"/>
	<path class="st0" d="M62,289.5l0-0.7l0.3,0.8l0.1,1.4c0.3,0.9,0.7,1.9,1.1,2.9c-0.2-0.3-0.4-0.7-0.6-1c0,0,0,0,0-0.1l0.1,0l-0.7-2
		l-0.1-0.9l-0.4-1l-0.1,0l-0.7-2.1L62,289.5L62,289.5z M62.2,284l0.1,0.2l-0.1,0L62.2,284L62.2,284z M58.6,285.3L59,286l-0.2-1.4
		l0.3,0.7l0.1,0.6c0.4,0.9,0.9,1.9,1.4,3c-0.2-0.3-0.5-0.7-0.7-1c-0.2-0.3-0.4-0.6-0.6-0.8l-0.1-0.6L58.6,285.3l-0.1,0.1l-0.9-2.1
		C57.9,283.9,58.2,284.6,58.6,285.3L58.6,285.3z M60,289.6l0.1,0.3c0.3,0.6,0.6,1.2,0.9,1.8c0,0,0,0,0,0c-0.2-0.3-0.4-0.5-0.5-0.8
		l-0.1-0.4l-0.5-0.9L60,289.6L60,289.6z M62.8,293.7l0.1,0.2l-0.4-0.9l-0.1,0l0-0.1l0.1,0L62.8,293.7L62.8,293.7z M66.6,302.4
		L66.6,302.4l-0.7-2.1l-0.3-0.9l-0.4-1.1l0,0l-0.1-0.2l0.1,0l0,0.1l0.3,0l-0.6-2.1l-0.1-0.9l-0.3-1.1l-0.1,0l-0.4-1.8
		c0.2,0.5,0.3,1,0.4,1.5l0.3,0l0-0.3l0.1,0.4l0.3,0l-0.3-2l0.1-0.9l-0.4-1.8l0,0.2l-0.3-2.3l0,0c-0.2-0.5-0.6-1.1-0.9-1.7
		c-0.2-0.3-0.3-0.5-0.4-0.7l-0.3-1.8l0.2-0.8l-0.4-1.4l-0.1,0.3l-0.3-2.5l0,0c-0.3-0.6-0.9-1.3-1.5-2c-0.3-0.3-0.5-0.6-0.7-0.8
		l-0.1-0.7l0.3-0.9l-0.5-1.4l-0.1,0.3l0,0l-0.4-2.9l0,0c-0.3-0.7-1.1-1.4-1.9-2.1c-0.3-0.3-0.7-0.6-0.9-0.9l-0.5-0.5l0.8,2l-0.5,1.3
		l0,0l0,0c0.6,1.4,1.3,3.1,1.9,4.7c0.3,0.8,0.6,1.5,0.9,2.2l0.2,0.4l0.3-1.2l0-0.1l0.4,1l0.2,0l0,0.1l-0.4,1.3l0,0l2.5,7l0.2-0.9
		l0.4,1.3l-0.2,1.3l0,0l0,0c0.4,1.1,0.8,2.5,1.2,3.8c-0.3-0.6-0.7-1.3-1-1.9c0,0,0,0,0-0.1l-0.5-1.9l0-0.9l-0.6-1.6l0,0.2l-0.6-2.5
		l0,0c-0.3-0.6-0.9-1.4-1.5-2.1c-0.2-0.3-0.5-0.6-0.7-0.9l-0.1-0.2l0.1-0.9l-0.6-1.5l-0.1,0.3l-0.7-2.9l0,0
		c-0.4-0.7-1.1-1.5-1.9-2.2c-0.3-0.3-0.6-0.6-0.9-0.9l-0.6-0.6l1,2.2l-0.2,1.4l0,0l0,0c0.7,1.5,1.6,3.3,2.4,5c0.3,0.8,0.7,1.5,1,2.1
		l0.2,0.5l0.1-1.4l0.4,1l0.1,0l-0.1,0.9l1.5,3.7c-0.3-0.6-0.8-1.2-1.2-1.8c-0.2-0.3-0.5-0.6-0.6-0.9l-0.1-0.8l-0.8-1.7l0,0.3
		l-0.9-2.7l0,0c-0.4-0.7-1.1-1.5-1.8-2.2c-0.3-0.3-0.6-0.7-0.8-0.9l-0.2,0.1l0.8,1.5l0.1,1.4l0,0c0.6,1.1,1.3,2.4,1.9,3.8
		c-0.4-0.6-0.9-1.2-1.4-1.8c-0.3-0.3-0.5-0.7-0.8-1l-0.2,0.1l0.9,1.5l0.4,1.5c0.4,0.8,0.9,1.7,1.4,2.6c-0.2-0.2-0.3-0.5-0.5-0.7
		c-0.2-0.3-0.5-0.7-0.7-1l-0.2,0.1l0.9,1.6l0.6,1.5c0.2,0.3,0.4,0.7,0.6,1c0,0,0-0.1-0.1-0.1l-0.2,0.1l0.9,1.6l0.8,1.5
		c1,1.7,2.2,3.7,3.3,5.6l1.1,1.9l0,0l3,5.4l0,0l0,0l0,0h0l0,0l0.1,0l0.2,0L66.6,302.4L66.6,302.4z"/>
	<path class="st0" d="M65.5,285.3l-0.1,0.2l0-2.5l0,0c-0.2-0.6-0.6-1.2-1-1.8c-0.2-0.3-0.4-0.5-0.5-0.8l-0.1-1.5l0.4-0.8l-0.3-1.3
		l-0.2,0.3l0-2.6l0,0c-0.2-0.6-0.8-1.2-1.4-1.9c-0.3-0.3-0.5-0.5-0.7-0.8l-0.1-1.2l0.5-0.8l0,0l-0.4-1.3l-0.2,0.3l0-2.8l0,0
		c-0.3-0.7-1.2-1.4-2-2.1c-0.4-0.3-0.7-0.6-1-0.9l-0.4-0.4l0.6,1.8l-0.9,1.3l2.5,7l0.6-1.1l0.1-0.2l0.3,1.1l0.1,0l0.1,0.5l-0.6,1.2
		l0,0l1.9,6.7l0.4-1.1l0.4,1.6l-0.5,1.3l1.6,7.3l0.3-1.3l0.1,0.7l0.3,0l-0.1-1.9l0.3-0.9L65.5,285.3L65.5,285.3z"/>
	<path class="st0" d="M69.8,273.3c-0.2-0.3-0.4-0.5-0.6-0.8l-0.1-0.2l0.2-1.1l0.7-0.7l0,0l-0.1-1.2l-0.3,0.3l0.6-2.4l0,0l0,0
		c-0.2-0.6-0.8-1.2-1.5-1.8c-0.2-0.2-0.4-0.3-0.5-0.5l0.5-2.2l0.9-0.8l-0.1-1.2l-0.4,0.3l0.7-2.7l0,0l0,0c-0.2-0.7-1.1-1.3-2-2
		c-0.4-0.3-0.8-0.6-1-0.8l-0.3-0.3l0.3,1.6l-1.5,1.1l0,0l1.3,6.4l1.1-0.9l0.3-0.2l0.2,1.4c0,0-0.1-0.1-0.1-0.1l-0.3-0.3l0.2,1.6
		l-1.2,1.1l0.8,6.1l0.9-1l0.2-0.2l0.1,0.9l0.3,0l0-0.1l0.1,1l-1,1.2l0,0l0.3,6.5l0.8-1.1l0.1-0.1l0,0.9l0.3,0l0.4-1.7l0.6-0.8l0,0
		l0-1.3l-0.2,0.3l0.6-2.5l0,0l0,0C70.8,274.6,70.3,274,69.8,273.3L69.8,273.3z"/>
	<path class="st0" d="M73.9,269.6c-0.2-0.3-0.4-0.5-0.5-0.8l-0.2-0.4L73,270l-1.2,1.1l0,0l-0.3,6.2l1-1.1l-0.1,0.9l0.3,0l0.6-1.7
		l0.7-0.7l0.2-1.2l-0.3,0.3l0.9-2.4l0,0l0,0C74.8,270.8,74.3,270.2,73.9,269.6L73.9,269.6z"/>
	<path class="st0" d="M78.6,265.8c-0.2-0.3-0.3-0.5-0.5-0.7l-0.2-0.4l-0.2,1.5l-1.3,1l0,0l-0.8,5.9l1.2-1.1l-0.2,0.8l0.3,0l0.7-1.6
		l0.8-0.7l0.3-1.2l-0.3,0.2l1.1-2.2l0,0l0,0C79.4,267,79,266.4,78.6,265.8L78.6,265.8z"/>
	<path class="st0" d="M83.4,261.5l-0.2-0.4l-0.3,1.4l-1.4,1l0,0l-1.3,5.6l1.1-0.9l0.1-0.1l-0.2,0.7l0.3,0l0.8-1.5l0.8-0.6l0.4-1.1
		l-0.3,0.2l1.2-2.1l0,0c0-0.5-0.3-1.1-0.6-1.6C83.6,261.9,83.5,261.7,83.4,261.5L83.4,261.5z"/>
	<path class="st0" d="M89,257.8l-0.1-0.4l-0.5,1.4l-1.4,0.9l-1.8,5.3l1.3-0.9l-0.3,0.7l0.3,0.1l0.9-1.4l0.8-0.6l0.4-1.1l-0.3,0.2
		l1.3-1.9l0,0c0.1-0.5-0.2-1-0.4-1.5C89.2,258.2,89,258,89,257.8L89,257.8z"/>
	<polygon class="st0" points="94.1,255.1 92.8,256 90.7,260.9 91.9,260.1 91.6,260.6 91.8,260.7 92.8,259.4 93.6,258.8 94.1,257.8 
		93.9,257.9 95.1,256.2 95.1,256.2 94.6,253.7 94.1,255.1 	"/>
	<polygon class="st0" points="99.7,251.4 98.5,252.2 96.2,256.8 97.2,256.1 97,256.5 97.2,256.6 98.1,255.4 98.9,254.9 99.5,253.8 
		99.3,253.9 100.4,252.5 100.4,252.4 100.3,250.1 99.7,251.4 	"/>
	<polygon class="st0" points="104,248.5 101.5,252.7 102.4,252 102.2,252.3 102.5,252.4 103.3,251.3 103.9,250.8 104.6,249.7 
		104.5,249.8 105.4,248.7 105.8,246.4 104.9,247.8 104,248.5 	"/>
	<path class="st0" d="M51.5,221.3l3.1,6.1l1.5-0.8l0.6-0.3l0.7,1.5l0.4-2l1.5-0.7l-0.5-1.1l-0.7,0.3l0.6-2.6l0,0l-0.1,0
		c-1.2-0.6-2.8-1.4-4.2-2.1l-1.5-0.8l0.8,1.4L51.5,221.3L51.5,221.3L51.5,221.3z"/>
	<path class="st0" d="M62,223.6l0.1,0.1l1.7-0.7l0.7-0.3l0.6,1.4l0.6-1.9l1.6-0.7l-0.4-1l-0.8,0.3l0.9-2.6l-0.1,0
		c-1.2-0.6-2.6-1.3-3.9-1.9l-1.8-0.9l0.6,1.4l-2.5,1L62,223.6L62,223.6z"/>
	<path class="st0" d="M71.1,212.3l-0.3-0.1l0.5,1.3l-2.7,0.9l2.2,5.5l0,0.1l1.8-0.7l0.8-0.3l0.5,1.3l0.8-1.8l1.8-0.6l-0.3-1
		l-0.8,0.3l1.2-2.4l-0.1,0c-1.1-0.5-2.6-1.2-3.9-1.8C72.1,212.8,71.6,212.5,71.1,212.3L71.1,212.3z"/>
	<path class="st0" d="M83.1,209.8c-0.5-0.2-1-0.5-1.4-0.7l-0.3-0.1l0.4,1.2l-2.7,0.9l1.6,5.3l2.6-0.9l0.3,1.3l1-1.7l1.7-0.6
		l-0.2-0.9l-0.8,0.3l1.3-2.2l0-0.1l-0.1,0C85.5,211,84.3,210.4,83.1,209.8L83.1,209.8z"/>
	<polygon class="st0" points="90.9,212.7 93.5,211.9 93.6,213.1 94.7,211.5 96.3,211 96.4,210.9 96.3,210 95.6,210.3 97,208.2 
		97,208.2 92.6,205.9 92.4,205.8 92.6,206.9 90,207.7 89.9,207.8 90.9,212.6 90.9,212.7 	"/>
	<polygon class="st0" points="103.9,208.3 103.9,209.5 105.1,207.9 106.7,207.4 106.6,206.6 106,206.8 107.4,204.9 107.5,204.8 
		103.5,202.6 103.6,203.7 101.1,204.4 101.1,204.5 101.5,209.1 103.9,208.3 	"/>
	<g>
		<polygon class="st0" points="114.3,204.7 114.2,205.8 115.4,204.4 116.8,203.9 116.9,203.1 116.3,203.3 117.8,201.5 114.5,199.5 
			114.5,200.5 112.3,201.2 112.2,201.2 112.1,205.4 114.3,204.7 		"/>
		<path class="st0" d="M37.7,246l0.1-0.3l0.5,0.8C38.1,246.3,37.9,246.2,37.7,246L37.7,246z M33.1,238.6l-0.4-0.9l0.4,0.6
			L33.1,238.6L33.1,238.6z M27.2,231.7L27.2,231.7c1.1,1.7,2.4,3.8,3.6,5.6l1.4,2.2l0.1-1.3l0-0.2l0.7,1.1l-0.1,0.6l0,0
			c0.9,1.4,2,3.1,3,4.8c0.5,0.8,1,1.5,1.4,2.2l0.2,0.3l0.1-0.6l0.7,1.1l-0.1,1.4l0,0c0.9,1.5,2.1,3.4,3.1,5.1c0.5,0.8,1,1.6,1.4,2.3
			l0.2,0.4l0.1-1.3l0-0.1l0.7,1.2l0.3,0l-0.8-2.1l0.2-0.9l0,0l-0.9-1.4l-0.1,0.4l-1.2-3.1l0,0c-0.5-0.7-1.5-1.5-2.4-2.2
			c-0.1-0.1-0.2-0.1-0.3-0.2l0.1,0l-0.8-2l0.2-0.9l-0.8-1.3l-0.1,0.4l-1.1-3l0,0c-0.5-0.7-1.5-1.4-2.5-2.1c-0.5-0.3-0.9-0.6-1.2-0.9
			l0.2-0.8l0,0l-0.9-1.4l-0.1,0.4l-1.3-3.2l0,0c-0.6-0.7-1.6-1.5-2.5-2.2c-0.5-0.4-0.9-0.7-1.3-1l-0.6-0.5l1.4,2.1L27.2,231.7
			L27.2,231.7z"/>
	</g>
	<path class="st0" d="M38.9,241.9l0.1-0.2l0.4,0.7C39.3,242.3,39.1,242.1,38.9,241.9L38.9,241.9L38.9,241.9L38.9,241.9z M34.2,234
		l0.4,0.6l-0.1,0.2L34.2,234L34.2,234z M28,227.6L28,227.6c1,1.5,2.2,3.4,3.3,5.1c0.5,0.8,1,1.5,1.4,2.2l0.2,0.2l0.5-1.1l0.1-0.3
		l0.8,1.3l0.1,0l-0.4,0.9l0,0l4.4,6.9l0.1,0.2l0.3-0.8l0.8,1.3l-0.6,1.4l0,0c0.9,1.5,2,3.3,3.1,5.1c0.5,0.8,0.9,1.5,1.3,2.2l0.2,0.3
		l0.4-1.2l0.1-0.2l0.7,1.2l0.3,0l-0.6-2.1l0.4-0.9l0,0l-0.8-1.3l-0.2,0.4l-0.9-3.2l0,0c-0.6-0.8-1.7-1.5-2.8-2.2
		c-0.1-0.1-0.2-0.1-0.3-0.2l-0.5-1.8l0.5-0.8l-0.8-1.3l-0.2,0.4l-0.8-3l0,0c-0.6-0.7-1.7-1.4-2.8-2.1c-0.5-0.3-1-0.6-1.4-0.9
		l-0.1-0.2l0.5-0.9l-0.8-1.3l-0.2,0.4l-1-3.2l0,0c-0.6-0.8-1.8-1.5-3-2.2c-0.6-0.3-1.1-0.7-1.5-1l-0.5-0.4l1.3,1.9L28,227.6
		L28,227.6z"/>
	<path class="st0" d="M37,230.4l0.4,0.6l-0.2,0.2L37,230.4L37,230.4z M41.5,237.7l0.4,0.7l-0.6-0.4L41.5,237.7L41.5,237.7z
		 M30.3,223.7L30.3,223.7c1,1.5,2.1,3.2,3.2,4.9c0.5,0.7,0.9,1.5,1.4,2.1l0.1,0.2l0.8-1l0.3-0.3l1.1,1.7l-0.7,0.9l0,0l4.1,6.6
		l0.1,0.2l0.7-0.9l1,1.6l-1,1.3l0,0c0.8,1.4,1.8,3.1,2.8,4.7c0.5,0.8,0.9,1.5,1.3,2.2l0.1,0.2l0.7-1l0.2-0.3l1.1,2l-0.5-2.7l0.7-0.9
		l-0.7-1.3l-0.3,0.4l-0.5-3.1l0,0c-0.5-0.6-1.5-1.2-2.5-1.8c-0.4-0.3-0.9-0.5-1.2-0.7l-0.3-1.7l0.8-0.8l-0.7-1.2l-0.3,0.4l-0.5-2.9
		l0,0c-0.6-0.7-1.8-1.4-3-2c-0.5-0.3-1.1-0.6-1.5-0.8l-0.2-0.7l0.8-0.8l-0.8-1.2l-0.4,0.4l-0.6-3.1l0,0c-0.6-0.8-2-1.5-3.3-2.2
		c-0.6-0.3-1.2-0.6-1.7-0.9l-0.5-0.3l1.2,1.8L30.3,223.7L30.3,223.7z"/>
	<path class="st0" d="M50.7,218.8l1.6-0.8l0.7-0.3l0.8,1.6l0.4-2.1l1.6-0.7l0.1,0l-0.6-1.1l-0.8,0.3l0.6-2.8l0,0l-0.1,0
		c-1.8-0.9-4.3-2-6.1-2.9l-0.3-0.2l0.9,1.5l-2.4,1.1l-0.1,0l3.6,6.4L50.7,218.8L50.7,218.8z"/>
	<path class="st0" d="M59.1,214.9l1.9-0.7l0.8-0.3l0.7,1.5l0.7-2l1.9-0.7l-0.5-1.1l-0.9,0.3l1-2.7l0-0.1l-0.1,0
		c-1.4-0.6-3.2-1.4-4.7-2.1l-1.9-0.8l0.7,1.4l-2.8,1.1L59.1,214.9L59.1,214.9z"/>
	<path class="st0" d="M71.2,210.3l0.9-0.3l0.6,1.4l0.9-1.8l1.9-0.6l0.1,0l-0.4-1l-0.9,0.3l1.3-2.5l0-0.1l-0.1,0
		c-1.4-0.6-3.2-1.4-4.8-2l-1.8-0.7l0.6,1.3l-3,1l-0.1,0l2.7,5.9L71.2,210.3L71.2,210.3z"/>
	<path class="st0" d="M80.4,207.2l3-0.9l0.4,1.3l1.1-1.7l2-0.6l-0.3-1l-0.9,0.3l1.5-2.3l0-0.1l-0.1,0c-1.2-0.6-2.8-1.2-4.2-1.8
		c-0.5-0.2-1.1-0.5-1.5-0.7l-0.3-0.1l0.5,1.3l-3.1,0.9l-0.1,0l2,5.5L80.4,207.2L80.4,207.2z"/>
	<path class="st0" d="M95.2,202.6l0.2,1.2l1.2-1.7l1.8-0.5l0.1,0l-0.2-0.9l-0.9,0.3l1.6-2.2l-0.1,0l0,0c0,0,0,0,0,0l0.1-0.1
		c-1.1-0.5-2.4-1.1-3.6-1.7c-0.5-0.2-1-0.5-1.5-0.7l-0.3-0.1l0.3,1.2l-3,0.8l-0.1,0l1.3,5.2L95.2,202.6L95.2,202.6z"/>
	<polygon class="st0" points="107.1,198.8 107.2,200 108.5,198.4 110.3,197.9 110.2,197 109.4,197.3 111.1,195.2 106.7,193 
		106.4,192.9 106.6,194 103.8,194.7 103.7,194.8 104.4,199.7 107.1,198.8 	"/>
	<path class="st0" d="M51.1,240.1l-0.5,0.4l-0.1-3l0,0c-0.5-0.7-1.7-1.3-2.9-1.9c-0.5-0.3-1-0.5-1.4-0.8l-0.1-1.5l1-0.8l-0.6-1.1
		l-0.5,0.4l-0.1-2.9l0,0l-4.7-2.7l-0.1-1.2l1.1-0.8l0,0l-0.7-1.2l-0.5,0.4l-0.2-3l0,0l0,0c-1.7-0.9-3.9-2.1-5.5-3l-0.4-0.2l1.1,1.7
		l-1.5,1.2l0,0l4.3,6.8l0.1,0.1l1.1-0.9l0.4-0.3l1.1,1.8l0-0.4l0.2,0.4l-1.4,1.2l3.9,6.6l1-0.9l0.4-0.3l0.2,0.4l-0.3-0.2l0.9,1.7
		l-1.4,1.2l0,0l3.8,7l1-1l0.3-0.3l0.9,1.8l-0.2-2.5l1-0.8L51.1,240.1L51.1,240.1z"/>
	<path class="st0" d="M55.9,236.6l0.3-2.9l0,0l0,0c-1.3-0.8-3.1-1.8-4.5-2.6l-0.4-0.2l0.1-1.3l1.2-0.7l0.1,0l-0.6-1.1l-0.6,0.3
		l0.2-2.7l0,0l-0.1,0c-1.1-0.6-2.6-1.4-3.9-2.1l-0.9-0.5l0.1-1.7l1.4-0.8l-0.6-1.1l-0.7,0.4l0.2-2.9l0,0l-6.3-3.2l1,1.6l-2,1.1
		l-0.1,0l4,6.6l0.1,0.1l1.4-0.9l0.6-0.3l0.5,0.8l-0.3-0.2l0.9,1.5l-1.8,1.1l3.5,6.4l1.3-0.8l0.5-0.3l0.8,1.6l0-0.3l0.4,0.7l-1.8,1.2
		l3.3,6.5l0.1,0.1l1.2-0.9l0.5-0.3l0.8,1.7l0.1-2.3l1.2-0.8l-0.5-1.2L55.9,236.6L55.9,236.6z"/>
	<path class="st0" d="M60.6,235.1l0.6-0.3l0.6,1.6l0.4-2.2l1.4-0.7l0.1,0l-0.4-1.1l-0.7,0.3l0.7-2.8l0,0l-0.1,0
		c-1.2-0.7-2.8-1.5-4.2-2.3l-1.3-0.7l0.7,1.5l-2.1,1.1l-0.1,0l2.9,6.4L60.6,235.1L60.6,235.1z"/>
	<path class="st0" d="M71.7,229.7l-0.3-1.1l-0.8,0.3l1-2.7l-0.1,0c-1.2-0.6-2.6-1.4-3.9-2.1l-1.6-0.8l0.6,1.4l-2.4,1l-0.1,0l2.4,6.2
		l1.7-0.8l0.7-0.3l0.5,1.5l0.7-2L71.7,229.7L71.7,229.7z"/>
	<path class="st0" d="M80.5,224.9l-0.8,0.3l1.3-2.5l-0.1,0c-1.1-0.6-2.6-1.4-3.8-2l-1.4-0.7l0.4,1.3l-2.6,1l-0.1,0l1.8,5.9l2.5-1
		l0.3,1.4l0.9-1.9l1.6-0.6l0.1,0L80.5,224.9L80.5,224.9z"/>
	<path class="st0" d="M86.3,217.7l-2.7,0.9l1.1,5.5l2.5-0.9l0.2,1.3l1.1-1.8l1.6-0.6l0.1,0l-0.1-1l-0.7,0.3l1.5-2.4l-0.1,0
		c-0.9-0.5-2.2-1.2-3.2-1.8c-0.4-0.2-0.8-0.5-1.2-0.7l-0.3-0.1L86.3,217.7L86.3,217.7z"/>
	<path class="st0" d="M100.9,215.5L100.9,215.5c-0.8-0.5-1.8-1.1-2.8-1.7c-0.4-0.2-0.8-0.5-1.1-0.7l-0.2-0.1l0.1,1.2l-2.5,0.9
		l-0.1,0l0.5,5.2l2.4-0.9l0,1.3l1.2-1.7l1.6-0.6l0-0.9l-0.7,0.3L100.9,215.5L100.9,215.5L100.9,215.5z"/>
	<polygon class="st0" points="107.4,210.8 105.1,211.6 105,211.6 104.9,216.5 107.2,215.7 107.1,216.9 108.4,215.2 109.9,214.7 
		110,213.8 109.3,214 110.9,212 111,212 107.5,209.7 107.4,210.8 	"/>
	<polygon class="st0" points="118,206.3 117.9,207.3 115.7,208.1 115.1,212.6 117.1,211.8 116.9,213 118.2,211.4 119.6,210.9 
		119.7,210 119.2,210.2 120.8,208.4 118,206.3 	"/>
	<path class="st0" d="M37.8,250.2l0-0.3l0.4,0.6C38,250.4,37.9,250.3,37.8,250.2L37.8,250.2z M39.8,255.2c-0.2-0.2-0.3-0.4-0.5-0.6
		l0.1,0l-1.1-2.1l-0.3-0.9l-1.1-1.8l0,0.2l-0.7-1.4l1.7,2.7l-0.1-0.5l0.4,0.7l0.3,1.5c0.6,1,1.3,2,1.9,3.2
		C40.3,255.9,40,255.6,39.8,255.2L39.8,255.2z M32.8,242l0.1,0.2l0,0.1L32.8,242L32.8,242z M32,242.4l-0.1-0.1L32,242.4L32,242.4
		L32,242.4z M33.1,243.6L33.1,243.6c0.6,1,1.3,2,1.9,3.1c-0.3-0.4-0.6-0.7-0.9-1.1c0,0,0,0,0,0c-0.3-0.6-0.6-1.1-0.9-1.7l-0.3-0.4
		l-0.3-1l0.4,0.6L33.1,243.6L33.1,243.6z M45.8,266.6l-0.5-1l-0.5-0.9l0.1,0l-0.1-0.2l0.2,0.3l0.3,0l-1.2-2.2l-0.3-1l-0.7-1.1
		l-0.1,0l-0.9-1.8c0,0,0.1,0.1,0.1,0.1l1.6,2.5l-0.3-1.5l0.6,1l0.3,0l-1-2.2l-0.1-1l-1-1.6l0,0.3l-1.4-3l0,0c-0.5-0.7-1.2-1.4-2-2.1
		c-0.1-0.1-0.2-0.2-0.3-0.3l0.1,0l-1-2.1l0-0.9l-0.9-1.5l0,0.3l-1.3-2.9l0,0c-0.5-0.6-1.3-1.3-2-2c-0.4-0.3-0.7-0.6-1-0.9l-0.1-0.5
		l-1-1.6l0,0.3l-1.5-3l0,0c-0.5-0.7-1.3-1.4-2-2.1c-0.4-0.4-0.8-0.8-1.1-1.1l-0.2,0.1l1,1.6l0.4,1.5c0.5,0.8,1.1,1.8,1.7,2.7
		c-0.5-0.7-0.9-1.3-1.2-1.8l-0.2,0.1l0.9,1.6l0.4,0.8l2.9,4.9l0,0l2,3.4l0.6,1l0.1,0.1l0,0l0.3,0.5l0,0h0c0,0,0,0,0,0l5.2,8.8l0,0
		l0,0l0.4,0.6h0l0.2,0.3l0,0h0c0,0,0,0,0,0l5.5,9.4l0,0l0,0l0.3,0.6l0,0l0,0l0.1,0l0,0l0,0l0.1,0L45.8,266.6L45.8,266.6z"/>
</g>
<g>
	<polygon class="st1" points="53.7,209.1 53.5,209.9 52.9,208.8 51.8,208.3 51.9,207.7 52.4,207.9 51.6,206.5 51.6,206.4 
		54.8,205.2 54.6,206 56.2,206.7 56.2,206.7 55.3,209.9 53.7,209.1 	"/>
	<polygon class="st1" points="48.1,206.2 47.9,207 47.3,205.9 46.3,205.4 46.4,204.8 46.8,205 46,203.7 48.7,202.6 48.5,203.3 
		50,203.9 50,204 49.5,206.9 48.1,206.2 	"/>
	<polygon class="st1" points="41.3,203.5 40.6,202.5 39.8,202 39.8,201.5 40.1,201.7 39.4,200.5 41.5,199.5 41.4,200.1 42.7,200.7 
		42.6,203.4 41.3,202.8 41.3,203.5 	"/>
	<polygon class="st1" points="34.3,199.1 33.6,198.7 33.6,198.2 33.8,198.3 33.2,197.4 34.7,196.4 34.7,197 35.8,197.5 35.8,197.5 
		35.9,199.9 34.9,199.4 35,200.1 34.3,199.1 	"/>
	<path class="st1" d="M61.5,206.3l-0.3,0.8l-0.6-1.2l-1.2-0.5l-0.1,0l0.2-0.6l0.6,0.3l-0.8-1.6l0.1,0v0c0,0,0,0,0,0l0-0.1
		c0.8-0.3,1.9-0.6,2.8-0.8c0.4-0.1,0.8-0.2,1.1-0.3l0.2-0.1l-0.4,0.8l2,0.8l0.1,0l-1.7,3.5L61.5,206.3L61.5,206.3z"/>
	<polygon class="st1" points="54,202.8 53.8,203.6 53.1,202.4 51.9,201.9 52.1,201.3 52.6,201.5 51.7,200 55.2,198.8 55.4,198.8 
		55.1,199.5 57,200.3 57,200.3 55.8,203.6 54,202.8 	"/>
	<polygon class="st1" points="46.1,199.2 46,199.9 45.3,198.8 44.2,198.3 44.2,198.3 44.3,197.7 44.7,197.9 43.8,196.5 46.7,195.4 
		46.9,195.4 46.7,196.1 48.4,196.8 48.4,196.8 47.7,199.9 46.1,199.2 	"/>
	<polygon class="st1" points="38.4,196.2 37.7,195.2 36.8,194.7 36.8,194.2 37.2,194.4 36.3,193.1 38.7,192.1 38.6,192.7 
		40.1,193.4 39.9,196.2 38.5,195.5 38.4,196.2 	"/>
	<polygon class="st1" points="45.2,207 45.1,207.7 46.5,208.4 46.3,211.5 45,210.8 45,211.7 44.3,210.4 43.4,210 43.4,209.4 
		43.7,209.6 42.9,208.2 45.2,207 	"/>
	<polygon class="st1" points="38.5,203.8 38.5,204.4 39.7,205.1 39.7,205.1 39.9,207.9 38.7,207.3 38.8,208.1 38.1,206.9 
		37.3,206.5 37.3,205.9 37.5,206.1 36.8,204.9 38.5,203.8 	"/>
	<polygon class="st1" points="32.4,201.2 33.4,201.8 33.8,204.3 32.9,203.8 33.1,204.6 32.3,203.4 31.7,203.1 31.6,202.5 
		31.8,202.6 31.2,201.7 31.2,201.6 32.3,200.6 32.4,201.2 	"/>
	<path class="st1" d="M75.3,288.7l-0.2,0l-0.3-1.4l-0.6-0.6l0,0l0.1-1l0.3,0.3l-0.5-2.1l0,0l0,0c0.2-0.5,0.8-1,1.3-1.4
		c0.3-0.2,0.5-0.4,0.7-0.6l0.3-0.3l-0.2,1.3l1,1l0,0l-0.9,5.1l-0.9-1L75.3,288.7L75.3,288.7z"/>
	<path class="st1" d="M71.8,285l-0.2,0l-0.4-1.3l-0.7-0.6l0,0l0-0.9l0.3,0.2l-0.7-2l0,0l0,0c0.1-0.5,0.7-0.9,1.2-1.3
		c0.2-0.2,0.5-0.4,0.6-0.6l0.2-0.2l-0.1,1.2l1.1,1l0,0l-0.4,4.8l-1-1L71.8,285L71.8,285z"/>
	<path class="st1" d="M82.4,283.5L82.4,283.5c0.3-0.6,1.2-1.1,2-1.6c0.4-0.2,0.7-0.4,1-0.6l0.3-0.3l-0.6,1.4l0.9,1.2l-2.3,5.6
		l-0.6-0.9l-0.1-0.2l-0.2,0.5l0.1-0.1l-0.5,1.4l0.7,1.1l0,0l-1.9,5.4l-0.5-1l-0.1-0.1l-0.2,0.8l-0.1,0l-0.2,0.7l0.5,1.1l0,0
		l-1.6,5.8l-0.4-1.1l-0.2,0.7l-0.2,0l0-1.6l-0.3-0.7l0,0l0.2-1.2l0.1,0.2l0-2.2l0,0c0.2-0.5,0.7-1.1,1.2-1.6
		c0.2-0.2,0.4-0.4,0.6-0.6l0-1.1l-0.4-0.7l0.3-1l0.2,0.3l0-2.2l0,0l0,0c0.2-0.5,0.8-0.9,1.4-1.4c0.3-0.2,0.5-0.4,0.7-0.6l0.1-1.5
		l-0.6-0.7l0,0l0.4-1l0.2,0.3L82.4,283.5L82.4,283.5L82.4,283.5z"/>
	<path class="st1" d="M77.2,281.2l0,0.2l-0.9-0.9l-0.3-0.2l-0.3,1.5l-0.5-2.1l-0.8-0.7l0.1-1l0.4,0.3l-0.6-2.3l0,0
		c0.6-0.5,1.5-1.1,2.2-1.6l0.8-0.6L77,275l1.4,1.1L77.2,281.2L77.2,281.2z"/>
	<path class="st1" d="M79.6,303.4l0,0.2l0.3-2.2l0,0c0.2-0.5,0.7-1,1.1-1.5c0.2-0.2,0.4-0.4,0.5-0.6l0.2-1.3l-0.3-0.7l0.4-1.1
		l0.1,0.3l0.3-2.2l0,0c0.3-0.5,0.9-1,1.4-1.5c0.3-0.2,0.5-0.4,0.7-0.6l0.2-1l-0.4-0.7l0,0l0.5-1.1l0.2,0.3l0.3-2.5l0,0
		c0.3-0.6,1.2-1.1,1.9-1.6c0.4-0.2,0.7-0.5,1-0.7l0.4-0.3l-0.8,1.5l0.6,1.2l-2.9,5.8l-0.4-1l-0.1-0.2l-0.4,0.9l-0.1,0l-0.2,0.4
		l0.4,1.1l0,0l-2.4,5.7l-0.3-1l-0.5,1.3l0.3,1.2l-2.2,6.1l-0.1-1.1l-0.2,0.6l-0.2,0l0.3-1.6l-0.2-0.8L79.6,303.4L79.6,303.4z"/>
	<path class="st1" d="M77.2,292.7c0.2-0.2,0.4-0.4,0.6-0.6l0.1-0.2l-0.1-0.9l-0.5-0.7l0,0l0.2-1l0.2,0.3l-0.3-2.2l0,0l0,0
		c0.2-0.5,0.9-1,1.5-1.5c0.2-0.1,0.3-0.3,0.5-0.4l-0.2-1.9l-0.7-0.7l0.3-1l0.3,0.3l-0.3-2.4l0,0l0,0c0.3-0.6,1.1-1.1,1.9-1.5
		c0.4-0.2,0.7-0.4,1-0.6l0.3-0.2l-0.5,1.3l1.1,1.1l0,0l-1.8,5.5l-0.8-0.9l-0.2-0.2l-0.3,1.2c0,0,0.1-0.1,0.1-0.1l0.3-0.3l-0.4,1.3
		l0.9,1.1l-1.4,5.2l-0.7-0.9l-0.1-0.1l-0.2,0.8l-0.2,0l0-0.1l-0.2,0.9l0.8,1.1l0,0l-1,5.6l-0.6-1l0-0.1l-0.1,0.8l-0.2,0l-0.2-1.5
		l-0.4-0.7l0,0l0.1-1.1l0.2,0.3l-0.3-2.2l0,0l0,0C76.2,293.7,76.7,293.2,77.2,292.7L77.2,292.7z"/>
	<path class="st1" d="M74.1,289.1c0.2-0.2,0.4-0.4,0.5-0.6l0.3-0.3l-0.1,1.4l0.9,1.1l0,0l-0.4,5.4l-0.8-1.1l0,0.8l-0.2,0l-0.3-1.5
		l-0.5-0.7l0-1.1l0.2,0.2l-0.5-2.1l0,0l0,0C73.1,290.1,73.6,289.6,74.1,289.1L74.1,289.1z"/>
	<path class="st1" d="M70.4,285.5c0.2-0.2,0.4-0.4,0.5-0.6l0.2-0.3l0,1.3l1,1l0,0l0.1,5.2l-0.9-1l0.1,0.7l-0.2,0l-0.5-1.4l-0.6-0.7
		l-0.1-1l0.2,0.2l-0.7-2l0,0l0,0C69.6,286.4,70,285.9,70.4,285.5L70.4,285.5z"/>
	<polygon class="st1" points="47.6,255.5 48.7,259.5 47.5,258.8 47.7,259.3 47.5,259.3 46.8,258.2 46.1,257.7 45.8,256.8 46,257 
		45.1,255.5 46.1,253.6 46.4,254.7 47.6,255.5 47.6,255.5 	"/>
	<polygon class="st1" points="53.9,265.9 55,266.8 55.8,270.9 54.8,270.1 54.9,270.7 54.7,270.7 54.1,269.6 53.4,269 53.2,268.2 
		53.4,268.3 52.5,266.8 52.5,266.7 53.7,264.9 53.9,265.9 	"/>
	<polygon class="st1" points="48.8,264 49.6,262.2 49.8,263.2 50.8,264 50.9,264 52,267.9 51,267.1 51.2,267.6 50.9,267.6 
		50.3,266.6 49.7,266.1 49.4,265.2 49.6,265.4 48.8,264 	"/>
	<polygon class="st1" points="45.8,262 45.1,260.9 45.1,260.9 45.5,259.2 45.9,260.2 46.7,260.9 48,264.4 47.2,263.8 47.3,264.1 
		47.1,264.1 46.5,263.2 46,262.8 45.7,261.9 45.8,262 	"/>
	<path class="st1" d="M56.2,265l-0.8-0.6l0,0l-0.1-0.9l0.3,0.2l-1-1.9l0,0c0.3-0.4,0.8-0.8,1.2-1.2c0.2-0.2,0.4-0.4,0.5-0.5l0.2-0.2
		l0.1,1.1l1.4,0.9l0.3,4.6l-1.3-0.9l0.2,1.3L56.2,265L56.2,265z"/>
	<polygon class="st1" points="51.3,256.9 51.5,258 52.8,258.8 52.9,258.9 53.6,263.2 52.3,262.3 52.6,263.6 51.5,261.8 50.8,261.2 
		50.7,261.2 50.5,260.3 50.8,260.6 49.8,258.8 51.3,256.9 	"/>
	<polygon class="st1" points="50.4,269.1 51.4,269.9 52.9,274.1 52,273.3 52.2,273.7 52,273.7 51.3,272.6 50.8,272.1 50.4,271.1 
		50.5,271.3 49.7,269.9 49.7,269.9 50,267.9 50.4,269.1 	"/>
	<polygon class="st1" points="47.7,266.6 49.4,270.5 48.7,269.8 48.8,270 48.6,270.1 47.9,269.1 47.5,268.6 47,267.6 47.1,267.7 
		46.4,266.7 46.4,264.7 46.9,265.9 47.7,266.6 	"/>
	<path class="st1" d="M88,227.2l-3.2,4.3l-1-0.7l-0.4-0.3l-0.8,1.1l0-1.6l-1-0.7l0.5-0.7l0.5,0.3l0-2l0,0l0,0c1-0.4,2.3-0.8,3.4-1.2
		l1.2-0.4l-0.8,1L88,227.2L88,227.2L88,227.2z"/>
	<path class="st1" d="M105.6,231.6l-0.4,0.2c-0.4,0.2-0.8,0.4-1.3,0.6c-1,0.4-2,0.9-2.6,1.4l0,0l-1.2,2.3l-0.1-0.3l-0.8,0.9l0.3,0.7
		l-1.1,2.1l1.3-1.4l0.1,0.2l0.2,0.9l0.2-0.2c0.4-0.5,0.9-1,1.4-1.5c1.1-1.2,2.2-2.4,3.2-3.5l0,0l-0.2-1.1L105.6,231.6L105.6,231.6z"
		/>
	<path class="st1" d="M97.3,235.8l-0.1-0.2l0.3-0.4L97.3,235.8L97.3,235.8z M104,228.6l-0.4,0.2c-0.4,0.2-0.9,0.4-1.4,0.5
		c-1.1,0.4-2.2,0.8-2.8,1.3l0,0l-0.9,2.3l-0.2-0.3l-0.8,0.8l0.5,0.7l-0.2,0.5c-0.4,0.2-0.8,0.3-1.2,0.5c-1,0.4-2,0.7-2.5,1.3l0,0
		l-0.8,2.1l-0.2-0.3l-0.7,0.8l0.4,0.7l-0.7,1.8l1.1-1.2l0.1,0.3l0,0l0.1,0.1l0.2,0.3l0,0l0.2,0.3l0.1-0.1l4-4.6l0,0l-0.4-0.7l1-1.1
		l0.1,0.2l0.4,0.8l0.1-0.1c0.4-0.4,0.9-0.9,1.3-1.5c1.1-1.2,2.1-2.3,3.1-3.3l0,0l-0.6-1.1L104,228.6L104,228.6z"/>
	<path class="st1" d="M85.6,241.2l0.3,0.3l0.5-2.2l0,0c0.5-0.5,1.5-0.8,2.4-1.2c0.4-0.2,0.8-0.3,1.2-0.4l0.3-1.1l-0.6-0.7l0.6-0.8
		l0.3,0.3l0.5-2.1l0,0l3.9-1.6l0.3-0.9l-0.7-0.7l0,0l0.7-0.8l0.3,0.3l0.6-2.2l0,0l0,0c1.4-0.5,3.2-1.2,4.6-1.8l0.3-0.1l-1,1.1l1,1
		l0,0l-4.2,4.7l-0.1,0.1l-0.7-0.8l-0.3-0.3l-1.1,1.2l0.1-0.3l-0.2,0.3l0.9,1l-3.9,4.6l-0.6-0.8l-0.2-0.3l-0.2,0.3l0.2-0.1l-1,1.2
		l0.8,1l0,0l-3.9,4.8l-0.6-0.8l-0.2-0.3l-1,1.3l0.5-1.8l-0.6-0.7L85.6,241.2L85.6,241.2z"/>
	<path class="st1" d="M82.5,238.1l0.2-2.2l0,0l0,0c1.1-0.5,2.6-1.1,3.8-1.5l0.3-0.1l0.1-0.9l-0.8-0.6l0,0l0.6-0.8l0.4,0.3l0.2-2.1
		l0,0l0,0c0.9-0.4,2.1-0.8,3.2-1.2l0.7-0.3l0.2-1.3l-0.9-0.7l0.6-0.8l0.4,0.3L92,224l0,0l5.2-1.8l-1,1.1l1.3,1l0,0l-3.9,4.5
		l-0.1,0.1l-0.9-0.8l-0.4-0.3l-0.5,0.6l0.2-0.1l-0.9,1.1l1.2,1l-3.6,4.4l-0.8-0.7l-0.3-0.3l-0.9,1.1l0-0.2l-0.4,0.5l1.2,1l-3.4,4.6
		l-0.1,0.1l-0.8-0.8l-0.3-0.3l-0.8,1.2l0.2-1.7l-0.8-0.7l0.6-0.8L82.5,238.1L82.5,238.1z"/>
	<path class="st1" d="M79.3,236.7l-0.4-0.3l-0.7,1.1l0-1.6l-0.9-0.7l0,0l0.5-0.8l0.4,0.3l-0.1-2.1l0,0l0,0c1-0.4,2.3-0.9,3.5-1.3
		l1.1-0.4l-0.7,1.1l1.4,1l0,0l-3.1,4.5L79.3,236.7L79.3,236.7z"/>
	<path class="st1" d="M72.4,232.1l0.4-0.8l0.5,0.3l-0.4-2.1l0.1,0c1-0.4,2.1-0.8,3.2-1.2l1.3-0.5l-0.6,1l1.6,1l0,0l-2.7,4.4
		l-1.1-0.7l-0.5-0.3l-0.6,1.1l-0.2-1.6L72.4,232.1L72.4,232.1z"/>
</g>
</svg>
